<?xml version="1.0" encoding="utf-8"?>
<!-- Generator: Adobe Illustrator 19.0.0, SVG Export Plug-In . SVG Version: 6.00 Build 0)  -->
<svg version="1.1" id="Layer_1" xmlns="http://www.w3.org/2000/svg" xmlns:xlink="http://www.w3.org/1999/xlink" width="15.000000pt" height="15.000000pt" x="0px" y="0px"
	 viewBox="14 77 640 640" style="enable-background:new 14 77 640 640;" xml:space="preserve">
<style type="text/css">
	.st0{fill:#FFFFFF;}
	.st1{fill:#86C724;}
</style>
<path class="st0" d="M261.5,77.6c-3.3,0.2-15.4,0.8-27,1.4c-57,3-119.5,12.9-156,24.9c-31.8,10.4-53,23.7-61.1,38.3l-2.9,5.3
	L14.2,201c-0.4,58.3-0.2,60.6,5.1,69.9c20,35.5,95.6,60.1,215.7,70.3c38.3,3.2,106.4,3.2,145,0c130.2-11,207.1-39.1,219.6-80.1
	c1.1-3.7,1.4-15,1.4-57.1c0-59.5,0.2-57.6-8-67.8c-14.8-18.3-47.7-32.4-101.5-43.6C464.7,87,419,81.3,383,79
	C366.4,77.9,274.2,76.9,261.5,77.6z M370,105.9c5.8,0.5,13,1.2,16,1.5c3,0.3,10.2,1,16,1.6c22.6,2.2,58.5,8.5,78,13.6
	c38.8,10.2,66.3,24.5,66.3,34.4c0,9.5-26.2,23.5-62.6,33.4c-30.2,8.2-62.4,13.1-115.2,17.6c-19.7,1.7-74.7,2.3-101,1.1
	c-50.3-2.3-101.1-9.2-134.5-18.2c-38.5-10.4-65-24.3-65-34.2c0-3.3,4.1-7.8,11.6-12.7c30.6-20,106.1-35.7,188.9-39.4
	C282.7,104,359.2,105,370,105.9z"/>
<path class="st0" d="M21.3,317.9c-7.5,3.5-7.3,2.2-7.3,53.3c0,35,0.3,46.5,1.4,50.4c5.7,21.4,33.8,41.3,77.1,54.8
	c56.2,17.4,123.7,26.3,209.1,27.3l42,0.6l3.5-3.1c1.9-1.6,5.1-6.2,7.2-10.1c22.5-43.3,62.2-75,109.7-87.9
	c23.1-6.3,51.2-7.2,75.8-2.7c9.6,1.8,25.9,7,36.1,11.4c4.8,2.2,8.5,3.1,12.2,3.1c4.8,0,5.5-0.3,9.1-4l3.8-4.1v-40.7
	c0-38.5-0.1-40.9-1.9-43.6c-2.7-4-5.7-5.5-11.4-5.6c-3.9,0-6.6,1-15,5.4c-32.1,17.1-79.2,30.6-131,37.6c-8.1,1.1-15.8,2.2-17,2.5
	c-6.4,1.5-60.2,5.7-86.9,6.7c-23.7,0.9-37.9,0.9-61.5,0c-28.7-1.1-76.1-4.9-89.8-7.2c-3.3-0.5-10.7-1.6-16.5-2.4
	c-50.9-7.1-95.5-20.1-129-37.4C29.1,316,26.7,315.5,21.3,317.9z"/>
<path class="st1" d="M494.5,424c-33.2,2.3-64.1,16.3-89.4,40.5c-22.3,21.3-37.2,49.4-42.7,80.5c-1.8,10.3-2,36.1-0.4,48
	c4.9,35.7,26,71.5,55.5,94.1c18.1,13.8,38.5,23,61.2,27.6c11.2,2.2,44.1,2.5,55.3,0.4c43.1-7.9,81.3-35.4,102.2-73.6
	c13.3-24.5,18.5-47.3,17.4-77c-0.7-21.2-3.3-33.6-10.8-51.5c-10.5-25.5-29.7-49-52.6-64.3c-19.6-13.2-45.4-22.7-65.4-24.1
	C508,423.3,505.3,423.3,494.5,424z M577.5,518c2.4,0,8.3,5.9,9,9c1.6,7.1,1.6,7-48.8,57.4c-26.4,26.5-49.2,48.9-50.6,49.8
	c-1.5,1.1-4.5,1.8-7.1,1.8h-4.4l-23.3-23.2c-15.3-15.3-23.6-24.3-24.3-26.4c-1.8-5.5,2.6-12.8,9.2-15.3c5.4-2,8.5,0,25.3,16.9
	c10.1,10.1,16.7,16,18,16c1.3,0,16.6-14.6,44.5-42.5c41.2-41.3,45.7-45.2,49.8-43.9C575.6,517.8,576.8,518,577.5,518z"/>
<path class="st0" d="M21.5,477.4c-1.6,0.7-3.9,2.3-5,3.6c-1.9,2.1-2,3.8-2.3,48.7c-0.2,40.4,0,47.3,1.3,52.1
	c8.7,29.8,55.9,54,134.5,68.8c45,8.5,88.8,12.3,149.2,13.1l44.8,0.6l4-4c3.6-3.7,4-4.5,4-9.3c0-3.6-0.9-7.3-3.1-12.1
	c-11.5-26.4-15.7-51.8-13.6-83.6c1.2-18.1,0.8-20-4.8-23.5c-2.5-1.5-5.2-1.8-17.5-1.8c-49.5-0.1-118.9-5.8-157.5-13
	c-5.5-1-11.8-2.1-14-2.5c-10.1-1.6-39.5-8.9-53-13.2c-14.5-4.5-33.8-12.4-46.3-18.9C29.5,475.8,26.6,475.1,21.5,477.4z"/>
</svg>
